<svg xmlns="http://www.w3.org/2000/svg" xmlns:xlink="http://www.w3.org/1999/xlink" width="50" zoomAndPan="magnify" viewBox="0 0 37.5 37.499999" height="50" preserveAspectRatio="xMidYMid meet" version="1.0"><defs><clipPath id="a06a2102f1"><path d="M 7.476562 8.808594 L 28.792969 8.808594 L 28.792969 28.496094 L 7.476562 28.496094 Z M 7.476562 8.808594 " clip-rule="nonzero"/></clipPath><clipPath id="8d649eff09"><path d="M 0 0 L 37.007812 0 L 37.007812 37.007812 L 0 37.007812 Z M 0 0 " clip-rule="nonzero"/></clipPath></defs><g clip-path="url(#a06a2102f1)"><path fill="#ffffff" d="M 7.476562 8.808594 L 28.777344 8.808594 L 28.777344 28.496094 L 7.476562 28.496094 Z M 7.476562 8.808594 " fill-opacity="1" fill-rule="nonzero"/></g><g clip-path="url(#8d649eff09)"><path fill="#eeb600" d="M 18.503906 0 C 8.328125 0 0 8.328125 0 18.503906 C 0 28.679688 8.328125 37.007812 18.503906 37.007812 C 28.679688 37.007812 37.007812 28.679688 37.007812 18.503906 C 37.007812 8.328125 28.679688 0 18.503906 0 Z M 25.90625 20.355469 L 20.355469 20.355469 L 20.355469 25.90625 C 20.355469 27.015625 19.613281 27.753906 18.503906 27.753906 C 17.394531 27.753906 16.652344 27.015625 16.652344 25.90625 L 16.652344 20.355469 L 11.101562 20.355469 C 9.992188 20.355469 9.25 19.613281 9.25 18.503906 C 9.25 17.394531 9.992188 16.652344 11.101562 16.652344 L 16.652344 16.652344 L 16.652344 11.101562 C 16.652344 9.992188 17.394531 9.25 18.503906 9.25 C 19.613281 9.25 20.355469 9.992188 20.355469 11.101562 L 20.355469 16.652344 L 25.90625 16.652344 C 27.015625 16.652344 27.753906 17.394531 27.753906 18.503906 C 27.753906 19.613281 27.015625 20.355469 25.90625 20.355469 Z M 25.90625 20.355469 " fill-opacity="1" fill-rule="nonzero"/></g></svg>