<svg xmlns="http://www.w3.org/2000/svg" xmlns:xlink="http://www.w3.org/1999/xlink" width="500" zoomAndPan="magnify" viewBox="0 0 375 374.999991" height="500" preserveAspectRatio="xMidYMid meet" version="1.0"><defs><g/><clipPath id="ef62ddef01"><path d="M 0 57 L 375 57 L 375 317.953125 L 0 317.953125 Z M 0 57 " clip-rule="nonzero"/></clipPath></defs><g clip-path="url(#ef62ddef01)"><path fill="#080800" d="M 13.882812 316.660156 C 10.382812 315.644531 4.941406 310.519531 2.300781 305.75 L 0 301.597656 L 0 199.234375 C 0 105.78125 0.117188 96.46875 1.300781 92.222656 C 2.015625 89.664062 3.503906 83.90625 4.605469 79.425781 C 6.933594 69.960938 9.183594 66.226562 14.765625 62.542969 C 22.621094 57.359375 9.9375 57.714844 187.277344 57.714844 C 364.640625 57.714844 351.910156 57.355469 359.820312 62.546875 C 361.949219 63.949219 364.742188 66.660156 366.023438 68.578125 C 368.289062 71.964844 368.863281 73.839844 372.992188 91.210938 L 374.964844 99.503906 L 374.757812 200.550781 C 374.554688 299.199219 374.523438 301.671875 373.03125 304.699219 C 370.777344 309.292969 364.121094 315.648438 360.519531 316.648438 C 356.714844 317.703125 17.523438 317.714844 13.882812 316.648438 Z M 341.410156 299.464844 C 341.234375 298.933594 319.3125 280.449219 292.683594 258.390625 C 266.058594 236.332031 243.664062 217.535156 242.917969 216.625 C 241.152344 214.460938 241.164062 209.078125 242.917969 206.886719 C 245.546875 203.640625 249.980469 202.570312 253.339844 204.367188 C 254.832031 205.164062 351.960938 285.238281 356.3125 289.257812 L 358.253906 291.050781 L 358.046875 194.167969 C 357.902344 130.441406 357.570312 96.570312 357.042969 95.195312 L 356.25 93.109375 L 351.4375 97.8125 C 348.792969 100.402344 315.640625 127.667969 277.777344 158.410156 C 239.914062 189.152344 206.484375 216.492188 203.496094 219.167969 C 194.773438 226.976562 192.398438 228.316406 187.265625 228.316406 C 182.097656 228.316406 179.589844 226.886719 170.730469 218.898438 C 167.667969 216.136719 134.28125 188.8125 96.535156 158.183594 C 58.789062 127.554688 25.738281 100.382812 23.09375 97.800781 L 18.28125 93.109375 L 17.488281 95.195312 C 16.960938 96.570312 16.617188 130.429688 16.480469 194.136719 L 16.277344 290.988281 L 20.152344 287.691406 C 29.074219 280.113281 115.503906 208.648438 118.730469 206.1875 C 120.921875 204.515625 123.117188 203.5 124.550781 203.5 C 127.425781 203.5 131.128906 205.363281 132.1875 207.335938 C 133.199219 209.230469 133.21875 214.023438 132.21875 215.890625 C 131.800781 216.675781 109.289062 235.6875 82.203125 258.136719 C 55.113281 280.585938 32.949219 299.289062 32.949219 299.695312 C 32.949219 300.164062 89.742188 300.433594 187.332031 300.433594 C 310.488281 300.433594 341.652344 300.238281 341.402344 299.464844 Z M 188.90625 209.222656 C 191.09375 206.589844 344.941406 82.03125 348.605469 79.933594 C 352.527344 77.683594 353.421875 76.085938 351.226562 75.242188 C 350.550781 74.984375 276.613281 74.773438 186.917969 74.773438 C 36.503906 74.773438 23.761719 74.875 22.78125 76.050781 C 21.871094 77.148438 21.929688 77.445312 23.191406 78.183594 C 23.996094 78.652344 26.261719 80.09375 28.226562 81.386719 C 32.347656 84.09375 184.027344 207.253906 185.628906 209.191406 C 186.957031 210.804688 187.589844 210.808594 188.90625 209.226562 Z M 188.90625 209.222656 " fill-opacity="1" fill-rule="nonzero"/></g><g fill="#080800" fill-opacity="1"><g transform="translate(187.499992, 219.70853)"><g><path d="M 4.8125 -1.015625 C 4.613281 -0.609375 4.351562 -0.316406 4.03125 -0.140625 C 3.707031 0.0351562 3.3125 0.125 2.84375 0.125 C 2.039062 0.125 1.445312 -0.144531 1.0625 -0.6875 C 0.6875 -1.226562 0.5 -2.046875 0.5 -3.140625 C 0.5 -5.347656 1.28125 -6.453125 2.84375 -6.453125 C 3.320312 -6.453125 3.71875 -6.363281 4.03125 -6.1875 C 4.351562 -6.019531 4.613281 -5.742188 4.8125 -5.359375 L 4.828125 -5.359375 L 4.8125 -6.0625 L 4.8125 -8.703125 L 5.859375 -8.703125 L 5.859375 -1.3125 C 5.859375 -0.644531 5.875 -0.207031 5.90625 0 L 4.890625 0 C 4.878906 -0.0625 4.863281 -0.207031 4.84375 -0.4375 C 4.832031 -0.664062 4.828125 -0.859375 4.828125 -1.015625 Z M 1.609375 -3.171875 C 1.609375 -2.285156 1.722656 -1.648438 1.953125 -1.265625 C 2.191406 -0.890625 2.578125 -0.703125 3.109375 -0.703125 C 3.703125 -0.703125 4.132812 -0.90625 4.40625 -1.3125 C 4.675781 -1.726562 4.8125 -2.375 4.8125 -3.25 C 4.8125 -4.082031 4.675781 -4.691406 4.40625 -5.078125 C 4.132812 -5.472656 3.707031 -5.671875 3.125 -5.671875 C 2.59375 -5.671875 2.207031 -5.472656 1.96875 -5.078125 C 1.726562 -4.691406 1.609375 -4.054688 1.609375 -3.171875 Z M 1.609375 -3.171875 "/></g></g></g></svg>