<svg xmlns="http://www.w3.org/2000/svg" xmlns:xlink="http://www.w3.org/1999/xlink" width="150" zoomAndPan="magnify" viewBox="0 0 112.5 112.499997" height="150" preserveAspectRatio="xMidYMid meet" version="1.0"><defs><g/><clipPath id="eada2a5aaa"><path d="M 0.628906 0 L 57 0 L 57 112.003906 L 0.628906 112.003906 Z M 0.628906 0 " clip-rule="nonzero"/></clipPath><clipPath id="536ac16b31"><path d="M 43 22 L 111.140625 22 L 111.140625 90 L 43 90 Z M 43 22 " clip-rule="nonzero"/></clipPath></defs><g clip-path="url(#eada2a5aaa)"><path fill="#ffffff" d="M 13.253906 56 C 13.253906 32.105469 32.667969 12.570312 56.6875 12.570312 L 56.6875 0 C 25.824219 0 0.683594 25.136719 0.683594 56 C 0.683594 86.863281 25.824219 112.003906 56.6875 112.003906 L 56.6875 99.433594 C 32.667969 99.433594 13.253906 79.894531 13.253906 56 Z M 13.253906 56 " fill-opacity="1" fill-rule="nonzero"/></g><g clip-path="url(#536ac16b31)"><path fill="#ffffff" d="M 111.316406 56 L 80.453125 24.890625 C 77.71875 22.152344 73.363281 22.152344 70.75 24.890625 C 68.011719 27.628906 68.011719 31.984375 70.75 34.597656 L 85.183594 49.28125 L 50.214844 49.28125 C 46.355469 49.28125 43.371094 52.390625 43.371094 56.125 C 43.371094 59.984375 46.480469 62.96875 50.214844 62.96875 L 85.058594 62.96875 L 70.625 77.40625 C 67.886719 80.144531 67.886719 84.5 70.625 87.113281 C 73.363281 89.851562 77.71875 89.851562 80.332031 87.113281 L 111.191406 56.125 L 111.191406 56 Z M 111.316406 56 " fill-opacity="1" fill-rule="nonzero"/></g><g fill="#ffffff" fill-opacity="1"><g transform="translate(93.393475, 57.2369)"><g><path d="M 1.015625 0.015625 C 0.898438 0.046875 0.789062 0.0546875 0.6875 0.046875 C 0.414062 0.046875 0.285156 -0.101562 0.296875 -0.40625 L 0.328125 -1.71875 L 0.109375 -1.734375 L 0.125 -1.984375 L 0.359375 -1.96875 L 0.46875 -2.40625 L 0.6875 -2.40625 L 0.671875 -1.96875 L 1.046875 -1.953125 L 1.03125 -1.703125 L 0.65625 -1.71875 L 0.625 -0.46875 C 0.625 -0.375 0.632812 -0.304688 0.65625 -0.265625 C 0.6875 -0.234375 0.742188 -0.210938 0.828125 -0.203125 C 0.867188 -0.203125 0.929688 -0.210938 1.015625 -0.234375 Z M 1.015625 0.015625 "/></g></g></g></svg>