<svg xmlns="http://www.w3.org/2000/svg" xmlns:xlink="http://www.w3.org/1999/xlink" width="50" zoomAndPan="magnify" viewBox="0 0 37.5 37.499999" height="50" preserveAspectRatio="xMidYMid meet" version="1.0"><defs><clipPath id="33a41afd7b"><path d="M 0.542969 0.542969 L 36.808594 0.542969 L 36.808594 36.808594 L 0.542969 36.808594 Z M 0.542969 0.542969 " clip-rule="nonzero"/></clipPath></defs><g clip-path="url(#33a41afd7b)"><path fill="#828282" d="M 37 18.769531 C 36.992188 28.804688 28.894531 37.003906 18.761719 37 C 8.699219 36.992188 0.542969 28.867188 0.546875 18.761719 C 0.550781 8.644531 8.738281 0.546875 18.777344 0.542969 C 28.835938 0.542969 37 8.710938 37 18.769531 Z M 21.921875 22.761719 C 21.921875 20.515625 21.917969 18.273438 21.925781 16.027344 C 21.929688 15.175781 21.625 14.457031 21 13.898438 C 20.011719 13.015625 18.859375 12.828125 17.628906 13.265625 C 16.449219 13.683594 15.664062 14.8125 15.667969 16.09375 C 15.695312 20.566406 15.679688 25.039062 15.675781 29.515625 C 15.675781 32.042969 17.839844 32.46875 18.875 32.464844 C 20.433594 32.460938 21.964844 31.203125 21.933594 29.402344 C 21.890625 27.191406 21.921875 24.976562 21.921875 22.761719 Z M 22.136719 8.40625 C 22.132812 6.542969 20.644531 5.054688 18.773438 5.054688 C 16.902344 5.054688 15.40625 6.554688 15.410156 8.425781 C 15.414062 10.277344 16.921875 11.785156 18.777344 11.785156 C 20.644531 11.785156 22.136719 10.285156 22.136719 8.40625 Z M 22.136719 8.40625 " fill-opacity="1" fill-rule="nonzero"/></g></svg>