<svg xmlns="http://www.w3.org/2000/svg" xmlns:xlink="http://www.w3.org/1999/xlink" width="40" zoomAndPan="magnify" viewBox="0 0 30 30.000001" height="40" preserveAspectRatio="xMidYMid meet" version="1.0"><defs><g/><clipPath id="612563fd59"><path d="M 1.75 0 L 28.605469 0 L 28.605469 29.03125 L 1.75 29.03125 Z M 1.75 0 " clip-rule="nonzero"/></clipPath></defs><g clip-path="url(#612563fd59)"><path fill="#000000" d="M 27.328125 5.054688 L 21.570312 5.054688 L 21.570312 4.164062 C 21.570312 3.890625 21.542969 3.621094 21.488281 3.355469 C 21.4375 3.085938 21.355469 2.828125 21.25 2.574219 C 21.144531 2.324219 21.015625 2.085938 20.859375 1.859375 C 20.707031 1.628906 20.53125 1.421875 20.335938 1.226562 C 20.140625 1.035156 19.929688 0.863281 19.699219 0.710938 C 19.46875 0.558594 19.226562 0.429688 18.96875 0.328125 C 18.714844 0.222656 18.453125 0.144531 18.179688 0.0898438 C 17.910156 0.0351562 17.636719 0.0078125 17.359375 0.0078125 L 12.996094 0.0078125 C 12.722656 0.0078125 12.449219 0.0351562 12.175781 0.0898438 C 11.90625 0.144531 11.640625 0.222656 11.386719 0.328125 C 11.132812 0.429688 10.886719 0.558594 10.660156 0.710938 C 10.429688 0.863281 10.214844 1.035156 10.019531 1.226562 C 9.824219 1.421875 9.648438 1.628906 9.496094 1.859375 C 9.34375 2.085938 9.210938 2.324219 9.105469 2.574219 C 9 2.828125 8.921875 3.085938 8.867188 3.355469 C 8.8125 3.621094 8.785156 3.890625 8.785156 4.164062 L 8.785156 5.054688 L 3.03125 5.054688 C 2.859375 5.054688 2.695312 5.085938 2.539062 5.152344 C 2.382812 5.214844 2.246094 5.304688 2.125 5.425781 C 2.003906 5.542969 1.914062 5.679688 1.847656 5.832031 C 1.78125 5.988281 1.75 6.148438 1.75 6.316406 C 1.75 6.484375 1.78125 6.644531 1.847656 6.800781 C 1.914062 6.953125 2.003906 7.089844 2.125 7.207031 C 2.246094 7.328125 2.382812 7.417969 2.539062 7.480469 C 2.695312 7.546875 2.859375 7.578125 3.03125 7.578125 L 4.949219 7.578125 L 4.949219 24.847656 C 4.949219 25.121094 4.976562 25.394531 5.03125 25.664062 C 5.085938 25.933594 5.164062 26.191406 5.273438 26.445312 C 5.378906 26.699219 5.507812 26.941406 5.664062 27.167969 C 5.820312 27.394531 5.996094 27.605469 6.191406 27.800781 C 6.386719 27.996094 6.601562 28.167969 6.832031 28.320312 C 7.066406 28.472656 7.308594 28.601562 7.566406 28.707031 C 7.824219 28.8125 8.089844 28.890625 8.359375 28.945312 C 8.632812 28.996094 8.910156 29.023438 9.1875 29.023438 L 21.175781 29.023438 C 21.453125 29.023438 21.730469 28.996094 22 28.941406 C 22.273438 28.886719 22.539062 28.808594 22.792969 28.703125 C 23.050781 28.597656 23.296875 28.46875 23.527344 28.316406 C 23.757812 28.164062 23.96875 27.992188 24.167969 27.796875 C 24.363281 27.605469 24.539062 27.394531 24.691406 27.167969 C 24.847656 26.9375 24.976562 26.699219 25.085938 26.445312 C 25.191406 26.191406 25.273438 25.929688 25.328125 25.664062 C 25.378906 25.394531 25.40625 25.121094 25.410156 24.847656 L 25.410156 7.578125 L 27.328125 7.578125 C 27.496094 7.578125 27.660156 7.546875 27.816406 7.480469 C 27.972656 7.417969 28.109375 7.328125 28.230469 7.207031 C 28.351562 7.089844 28.441406 6.953125 28.507812 6.800781 C 28.574219 6.644531 28.605469 6.484375 28.605469 6.316406 C 28.605469 6.148438 28.574219 5.988281 28.507812 5.832031 C 28.441406 5.679688 28.351562 5.542969 28.230469 5.425781 C 28.109375 5.304688 27.972656 5.214844 27.816406 5.152344 C 27.660156 5.085938 27.496094 5.054688 27.328125 5.054688 Z M 11.339844 4.164062 C 11.339844 3.949219 11.382812 3.742188 11.46875 3.539062 C 11.550781 3.339844 11.671875 3.164062 11.828125 3.011719 C 11.980469 2.855469 12.160156 2.738281 12.363281 2.65625 C 12.566406 2.574219 12.777344 2.53125 12.996094 2.53125 L 17.359375 2.53125 C 17.578125 2.53125 17.789062 2.574219 17.992188 2.65625 C 18.195312 2.738281 18.375 2.855469 18.53125 3.011719 C 18.683594 3.164062 18.804688 3.339844 18.886719 3.539062 C 18.972656 3.742188 19.015625 3.949219 19.015625 4.164062 L 19.015625 5.054688 L 11.339844 5.054688 Z M 22.851562 24.847656 C 22.851562 25.066406 22.808594 25.277344 22.722656 25.480469 C 22.636719 25.679688 22.515625 25.859375 22.359375 26.015625 C 22.203125 26.167969 22.019531 26.289062 21.816406 26.375 C 21.609375 26.457031 21.398438 26.5 21.175781 26.5 L 9.1875 26.5 C 8.964844 26.5 8.75 26.457031 8.542969 26.375 C 8.339844 26.292969 8.15625 26.171875 8 26.015625 C 7.84375 25.863281 7.722656 25.683594 7.636719 25.480469 C 7.550781 25.277344 7.507812 25.066406 7.503906 24.847656 L 7.503906 7.578125 L 22.851562 7.578125 Z M 22.851562 24.847656 " fill-opacity="1" fill-rule="nonzero"/></g><path fill="#000000" d="M 11.980469 10.410156 C 11.8125 10.410156 11.648438 10.441406 11.492188 10.507812 C 11.335938 10.570312 11.195312 10.660156 11.078125 10.78125 C 10.957031 10.898438 10.863281 11.035156 10.800781 11.1875 C 10.734375 11.34375 10.703125 11.503906 10.703125 11.671875 L 10.703125 23.023438 C 10.703125 23.191406 10.734375 23.351562 10.800781 23.507812 C 10.863281 23.664062 10.957031 23.796875 11.078125 23.917969 C 11.195312 24.035156 11.335938 24.125 11.492188 24.191406 C 11.648438 24.253906 11.8125 24.285156 11.980469 24.285156 C 12.152344 24.285156 12.3125 24.253906 12.46875 24.191406 C 12.628906 24.125 12.765625 24.035156 12.886719 23.917969 C 13.003906 23.796875 13.097656 23.664062 13.164062 23.507812 C 13.226562 23.351562 13.261719 23.191406 13.261719 23.023438 L 13.261719 11.671875 C 13.261719 11.503906 13.226562 11.34375 13.164062 11.1875 C 13.097656 11.035156 13.003906 10.898438 12.886719 10.78125 C 12.765625 10.660156 12.628906 10.570312 12.46875 10.507812 C 12.3125 10.441406 12.152344 10.410156 11.980469 10.410156 Z M 11.980469 10.410156 " fill-opacity="1" fill-rule="nonzero"/><path fill="#000000" d="M 18.375 10.410156 C 18.207031 10.410156 18.042969 10.441406 17.886719 10.507812 C 17.730469 10.570312 17.589844 10.660156 17.472656 10.78125 C 17.351562 10.898438 17.257812 11.035156 17.195312 11.1875 C 17.128906 11.34375 17.097656 11.503906 17.097656 11.671875 L 17.097656 23.023438 C 17.097656 23.191406 17.128906 23.351562 17.195312 23.507812 C 17.257812 23.664062 17.351562 23.796875 17.472656 23.917969 C 17.589844 24.035156 17.730469 24.125 17.886719 24.191406 C 18.042969 24.253906 18.207031 24.285156 18.375 24.285156 C 18.542969 24.285156 18.707031 24.253906 18.863281 24.191406 C 19.019531 24.125 19.160156 24.035156 19.28125 23.917969 C 19.398438 23.796875 19.492188 23.664062 19.554688 23.507812 C 19.621094 23.351562 19.652344 23.191406 19.652344 23.023438 L 19.652344 11.671875 C 19.652344 11.503906 19.621094 11.34375 19.554688 11.1875 C 19.492188 11.035156 19.398438 10.898438 19.28125 10.78125 C 19.160156 10.660156 19.019531 10.570312 18.863281 10.507812 C 18.707031 10.441406 18.542969 10.410156 18.375 10.410156 Z M 18.375 10.410156 " fill-opacity="1" fill-rule="nonzero"/><g fill="#000000" fill-opacity="1"><g transform="translate(18.104013, 13.621937)"><g><path d="M 0.4375 -0.125 C 0.4375 -0.09375 0.414062 -0.0625 0.375 -0.03125 C 0.332031 0 0.285156 0.015625 0.234375 0.015625 C 0.171875 0.015625 0.125 0.00390625 0.09375 -0.015625 C 0.0625 -0.046875 0.0390625 -0.078125 0.03125 -0.109375 L 0.109375 -0.125 C 0.109375 -0.101562 0.117188 -0.0859375 0.140625 -0.078125 C 0.160156 -0.0664062 0.191406 -0.0625 0.234375 -0.0625 C 0.273438 -0.0625 0.300781 -0.0664062 0.3125 -0.078125 C 0.332031 -0.0859375 0.34375 -0.101562 0.34375 -0.125 C 0.34375 -0.144531 0.335938 -0.160156 0.328125 -0.171875 C 0.316406 -0.179688 0.296875 -0.191406 0.265625 -0.203125 L 0.203125 -0.21875 C 0.160156 -0.238281 0.128906 -0.253906 0.109375 -0.265625 C 0.0859375 -0.273438 0.0703125 -0.285156 0.0625 -0.296875 C 0.0507812 -0.304688 0.046875 -0.328125 0.046875 -0.359375 C 0.046875 -0.410156 0.0625 -0.445312 0.09375 -0.46875 C 0.125 -0.488281 0.171875 -0.5 0.234375 -0.5 C 0.285156 -0.5 0.328125 -0.488281 0.359375 -0.46875 C 0.390625 -0.445312 0.410156 -0.414062 0.421875 -0.375 L 0.34375 -0.359375 C 0.34375 -0.390625 0.332031 -0.410156 0.3125 -0.421875 C 0.289062 -0.429688 0.265625 -0.4375 0.234375 -0.4375 C 0.191406 -0.4375 0.160156 -0.429688 0.140625 -0.421875 C 0.128906 -0.410156 0.125 -0.390625 0.125 -0.359375 C 0.125 -0.347656 0.125 -0.335938 0.125 -0.328125 C 0.132812 -0.316406 0.144531 -0.3125 0.15625 -0.3125 C 0.175781 -0.3125 0.210938 -0.304688 0.265625 -0.296875 C 0.296875 -0.285156 0.320312 -0.273438 0.34375 -0.265625 C 0.363281 -0.253906 0.378906 -0.238281 0.390625 -0.21875 C 0.398438 -0.207031 0.410156 -0.191406 0.421875 -0.171875 C 0.429688 -0.160156 0.4375 -0.144531 0.4375 -0.125 Z M 0.4375 -0.125 "/></g></g></g></svg>