<svg xmlns="http://www.w3.org/2000/svg" xmlns:xlink="http://www.w3.org/1999/xlink" width="100" zoomAndPan="magnify" viewBox="0 0 75 74.999997" height="100" preserveAspectRatio="xMidYMid meet" version="1.0"><defs><g/><clipPath id="82aad2354c"><path d="M 66 65 L 75 65 L 75 70.828125 L 66 70.828125 Z M 66 65 " clip-rule="nonzero"/></clipPath><clipPath id="4d5561a19f"><path d="M 55 65 L 64 65 L 64 70.828125 L 55 70.828125 Z M 55 65 " clip-rule="nonzero"/></clipPath><clipPath id="6fa08347a1"><path d="M 47 62 L 53 62 L 53 70.828125 L 47 70.828125 Z M 47 62 " clip-rule="nonzero"/></clipPath><clipPath id="cf1091fb3d"><path d="M 47 4.078125 L 75 4.078125 L 75 32 L 47 32 Z M 47 4.078125 " clip-rule="nonzero"/></clipPath></defs><path fill="#000000" d="M 19.449219 43.015625 L 19.449219 9.640625 L 13.894531 9.640625 L 13.894531 43.015625 L 0.0078125 43.015625 L 16.671875 59.703125 L 33.332031 43.015625 Z M 19.449219 43.015625 " fill-opacity="1" fill-rule="nonzero"/><g clip-path="url(#82aad2354c)"><path fill="#000000" d="M 74.992188 70.828125 L 66.660156 70.828125 L 66.660156 65.265625 L 74.992188 65.265625 Z M 74.992188 70.828125 " fill-opacity="1" fill-rule="nonzero"/></g><g clip-path="url(#4d5561a19f)"><path fill="#000000" d="M 63.882812 70.828125 L 55.550781 70.828125 L 55.550781 65.265625 L 63.882812 65.265625 Z M 63.882812 70.828125 " fill-opacity="1" fill-rule="nonzero"/></g><g clip-path="url(#6fa08347a1)"><path fill="#000000" d="M 52.773438 70.828125 L 47.21875 70.828125 L 47.21875 62.484375 L 52.773438 62.484375 Z M 52.773438 70.828125 " fill-opacity="1" fill-rule="nonzero"/></g><path fill="#000000" d="M 74.992188 51.359375 L 69.4375 51.359375 L 69.4375 43.015625 L 74.992188 43.015625 Z M 74.992188 51.359375 " fill-opacity="1" fill-rule="nonzero"/><path fill="#000000" d="M 66.660156 48.578125 L 58.328125 48.578125 L 58.328125 43.015625 L 66.660156 43.015625 Z M 66.660156 48.578125 " fill-opacity="1" fill-rule="nonzero"/><path fill="#000000" d="M 55.550781 48.578125 L 47.21875 48.578125 L 47.21875 43.015625 L 55.550781 43.015625 Z M 55.550781 48.578125 " fill-opacity="1" fill-rule="nonzero"/><path fill="#000000" d="M 74.992188 62.484375 L 69.4375 62.484375 L 69.4375 54.140625 L 74.992188 54.140625 Z M 74.992188 62.484375 " fill-opacity="1" fill-rule="nonzero"/><path fill="#000000" d="M 52.773438 59.703125 L 47.21875 59.703125 L 47.21875 51.359375 L 52.773438 51.359375 Z M 52.773438 59.703125 " fill-opacity="1" fill-rule="nonzero"/><g clip-path="url(#cf1091fb3d)"><path fill="#000000" d="M 52.773438 26.328125 L 52.773438 9.640625 L 69.4375 9.640625 L 69.4375 26.328125 Z M 47.21875 31.890625 L 74.992188 31.890625 L 74.992188 4.078125 L 47.21875 4.078125 Z M 47.21875 31.890625 " fill-opacity="1" fill-rule="nonzero"/></g><g fill="#000000" fill-opacity="1"><g transform="translate(48.600002, 27.122371)"><g><path d="M 3.546875 -1.109375 C 3.546875 -0.734375 3.398438 -0.441406 3.109375 -0.234375 C 2.828125 -0.0234375 2.425781 0.078125 1.90625 0.078125 C 1.40625 0.078125 1.015625 -0.00390625 0.734375 -0.171875 C 0.460938 -0.335938 0.289062 -0.597656 0.21875 -0.953125 L 0.8125 -1.0625 C 0.863281 -0.84375 0.976562 -0.679688 1.15625 -0.578125 C 1.332031 -0.484375 1.582031 -0.4375 1.90625 -0.4375 C 2.25 -0.4375 2.5 -0.488281 2.65625 -0.59375 C 2.8125 -0.695312 2.890625 -0.851562 2.890625 -1.0625 C 2.890625 -1.21875 2.832031 -1.34375 2.71875 -1.4375 C 2.613281 -1.539062 2.441406 -1.628906 2.203125 -1.703125 L 1.71875 -1.828125 C 1.332031 -1.921875 1.054688 -2.015625 0.890625 -2.109375 C 0.734375 -2.210938 0.609375 -2.332031 0.515625 -2.46875 C 0.421875 -2.601562 0.375 -2.769531 0.375 -2.96875 C 0.375 -3.332031 0.503906 -3.609375 0.765625 -3.796875 C 1.023438 -3.992188 1.40625 -4.09375 1.90625 -4.09375 C 2.351562 -4.09375 2.707031 -4.015625 2.96875 -3.859375 C 3.238281 -3.703125 3.40625 -3.453125 3.46875 -3.109375 L 2.875 -3.03125 C 2.832031 -3.21875 2.726562 -3.359375 2.5625 -3.453125 C 2.40625 -3.546875 2.1875 -3.59375 1.90625 -3.59375 C 1.601562 -3.59375 1.378906 -3.546875 1.234375 -3.453125 C 1.097656 -3.359375 1.03125 -3.21875 1.03125 -3.03125 C 1.03125 -2.914062 1.054688 -2.820312 1.109375 -2.75 C 1.171875 -2.675781 1.257812 -2.613281 1.375 -2.5625 C 1.5 -2.507812 1.75 -2.4375 2.125 -2.34375 C 2.476562 -2.257812 2.734375 -2.175781 2.890625 -2.09375 C 3.046875 -2.019531 3.164062 -1.9375 3.25 -1.84375 C 3.34375 -1.75 3.414062 -1.640625 3.46875 -1.515625 C 3.519531 -1.398438 3.546875 -1.265625 3.546875 -1.109375 Z M 3.546875 -1.109375 "/></g></g></g></svg>