<svg xmlns="http://www.w3.org/2000/svg" xmlns:xlink="http://www.w3.org/1999/xlink" width="100" zoomAndPan="magnify" viewBox="0 0 75 74.999997" height="100" preserveAspectRatio="xMidYMid meet" version="1.0"><defs><g/><clipPath id="4f4cdc1591"><path d="M 0 4.171875 L 9 4.171875 L 9 10 L 0 10 Z M 0 4.171875 " clip-rule="nonzero"/></clipPath><clipPath id="7262b8a518"><path d="M 11 4.171875 L 20 4.171875 L 20 10 L 11 10 Z M 11 4.171875 " clip-rule="nonzero"/></clipPath><clipPath id="06291f0cbb"><path d="M 22 4.171875 L 28 4.171875 L 28 13 L 22 13 Z M 22 4.171875 " clip-rule="nonzero"/></clipPath><clipPath id="ac24114d47"><path d="M 0 43 L 28 43 L 28 70.921875 L 0 70.921875 Z M 0 43 " clip-rule="nonzero"/></clipPath></defs><path fill="#000000" d="M 55.550781 31.984375 L 55.550781 65.359375 L 61.105469 65.359375 L 61.105469 31.984375 L 74.992188 31.984375 L 58.328125 15.296875 L 41.664062 31.984375 Z M 55.550781 31.984375 " fill-opacity="1" fill-rule="nonzero"/><g clip-path="url(#4f4cdc1591)"><path fill="#000000" d="M 0.0078125 4.171875 L 8.339844 4.171875 L 8.339844 9.734375 L 0.0078125 9.734375 Z M 0.0078125 4.171875 " fill-opacity="1" fill-rule="nonzero"/></g><g clip-path="url(#7262b8a518)"><path fill="#000000" d="M 11.117188 4.171875 L 19.445312 4.171875 L 19.445312 9.734375 L 11.117188 9.734375 Z M 11.117188 4.171875 " fill-opacity="1" fill-rule="nonzero"/></g><g clip-path="url(#06291f0cbb)"><path fill="#000000" d="M 22.222656 4.171875 L 27.777344 4.171875 L 27.777344 12.515625 L 22.222656 12.515625 Z M 22.222656 4.171875 " fill-opacity="1" fill-rule="nonzero"/></g><path fill="#000000" d="M 0.0078125 23.640625 L 5.5625 23.640625 L 5.5625 31.984375 L 0.0078125 31.984375 Z M 0.0078125 23.640625 " fill-opacity="1" fill-rule="nonzero"/><path fill="#000000" d="M 8.339844 26.421875 L 16.671875 26.421875 L 16.671875 31.984375 L 8.339844 31.984375 Z M 8.339844 26.421875 " fill-opacity="1" fill-rule="nonzero"/><path fill="#000000" d="M 19.445312 26.421875 L 27.777344 26.421875 L 27.777344 31.984375 L 19.445312 31.984375 Z M 19.445312 26.421875 " fill-opacity="1" fill-rule="nonzero"/><path fill="#000000" d="M 0.0078125 12.515625 L 5.5625 12.515625 L 5.5625 20.859375 L 0.0078125 20.859375 Z M 0.0078125 12.515625 " fill-opacity="1" fill-rule="nonzero"/><path fill="#000000" d="M 22.222656 15.296875 L 27.777344 15.296875 L 27.777344 23.640625 L 22.222656 23.640625 Z M 22.222656 15.296875 " fill-opacity="1" fill-rule="nonzero"/><g clip-path="url(#ac24114d47)"><path fill="#000000" d="M 22.222656 48.671875 L 22.222656 65.359375 L 5.5625 65.359375 L 5.5625 48.671875 Z M 27.777344 43.109375 L 0.0078125 43.109375 L 0.0078125 70.921875 L 27.777344 70.921875 Z M 27.777344 43.109375 " fill-opacity="1" fill-rule="nonzero"/></g><g fill="#000000" fill-opacity="1"><g transform="translate(54.749997, 27.149997)"><g><path d="M 5.5625 -1.75 C 5.5625 -1.15625 5.335938 -0.691406 4.890625 -0.359375 C 4.441406 -0.0351562 3.8125 0.125 3 0.125 C 2.207031 0.125 1.597656 -0.00390625 1.171875 -0.265625 C 0.742188 -0.523438 0.460938 -0.929688 0.328125 -1.484375 L 1.265625 -1.671875 C 1.359375 -1.328125 1.546875 -1.078125 1.828125 -0.921875 C 2.109375 -0.765625 2.5 -0.6875 3 -0.6875 C 3.53125 -0.6875 3.921875 -0.765625 4.171875 -0.921875 C 4.421875 -1.085938 4.546875 -1.335938 4.546875 -1.671875 C 4.546875 -1.921875 4.457031 -2.125 4.28125 -2.28125 C 4.113281 -2.4375 3.835938 -2.566406 3.453125 -2.671875 L 2.703125 -2.859375 C 2.085938 -3.015625 1.648438 -3.164062 1.390625 -3.3125 C 1.140625 -3.46875 0.941406 -3.65625 0.796875 -3.875 C 0.660156 -4.09375 0.59375 -4.359375 0.59375 -4.671875 C 0.59375 -5.242188 0.796875 -5.679688 1.203125 -5.984375 C 1.617188 -6.285156 2.21875 -6.4375 3 -6.4375 C 3.707031 -6.4375 4.265625 -6.3125 4.671875 -6.0625 C 5.085938 -5.820312 5.347656 -5.429688 5.453125 -4.890625 L 4.5 -4.765625 C 4.445312 -5.046875 4.289062 -5.257812 4.03125 -5.40625 C 3.78125 -5.5625 3.4375 -5.640625 3 -5.640625 C 2.53125 -5.640625 2.179688 -5.566406 1.953125 -5.421875 C 1.722656 -5.273438 1.609375 -5.054688 1.609375 -4.765625 C 1.609375 -4.585938 1.65625 -4.441406 1.75 -4.328125 C 1.84375 -4.210938 1.976562 -4.113281 2.15625 -4.03125 C 2.34375 -3.945312 2.734375 -3.832031 3.328125 -3.6875 C 3.890625 -3.539062 4.289062 -3.410156 4.53125 -3.296875 C 4.78125 -3.179688 4.972656 -3.050781 5.109375 -2.90625 C 5.253906 -2.757812 5.363281 -2.585938 5.4375 -2.390625 C 5.519531 -2.203125 5.5625 -1.988281 5.5625 -1.75 Z M 5.5625 -1.75 "/></g></g></g></svg>