<svg xmlns="http://www.w3.org/2000/svg" xmlns:xlink="http://www.w3.org/1999/xlink" width="150" zoomAndPan="magnify" viewBox="0 0 112.5 112.499997" height="150" preserveAspectRatio="xMidYMid meet" version="1.0"><defs><g/><clipPath id="fb7a621cd8"><path d="M 0 7 L 112.003906 7 L 112.003906 105 L 0 105 Z M 0 7 " clip-rule="nonzero"/></clipPath></defs><g clip-path="url(#fb7a621cd8)"><path fill="#5d5d5d" d="M 112.003906 70.5625 L 112.003906 89.351562 C 112 90.378906 111.898438 91.394531 111.699219 92.402344 C 111.496094 93.410156 111.199219 94.386719 110.804688 95.335938 C 110.414062 96.285156 109.929688 97.1875 109.359375 98.039062 C 108.789062 98.894531 108.140625 99.683594 107.414062 100.410156 C 106.6875 101.136719 105.898438 101.785156 105.042969 102.355469 C 104.1875 102.925781 103.289062 103.410156 102.339844 103.804688 C 101.390625 104.195312 100.410156 104.492188 99.40625 104.695312 C 98.398438 104.894531 97.378906 104.996094 96.351562 105 L 15.648438 105 C 14.621094 104.996094 13.605469 104.894531 12.597656 104.695312 C 11.589844 104.492188 10.613281 104.195312 9.664062 103.804688 C 8.714844 103.410156 7.8125 102.925781 6.960938 102.355469 C 6.105469 101.785156 5.316406 101.136719 4.589844 100.410156 C 3.863281 99.683594 3.214844 98.894531 2.644531 98.039062 C 2.070312 97.1875 1.589844 96.285156 1.195312 95.335938 C 0.800781 94.386719 0.503906 93.410156 0.304688 92.402344 C 0.101562 91.394531 0 90.378906 0 89.351562 L 0 70.5625 C 0 70.246094 0.03125 69.929688 0.09375 69.621094 C 0.152344 69.308594 0.246094 69.007812 0.367188 68.714844 C 0.488281 68.421875 0.636719 68.140625 0.8125 67.878906 C 0.988281 67.613281 1.1875 67.371094 1.414062 67.148438 C 1.636719 66.921875 1.882812 66.722656 2.144531 66.546875 C 2.410156 66.371094 2.6875 66.222656 2.980469 66.101562 C 3.273438 65.976562 3.574219 65.886719 3.886719 65.824219 C 4.195312 65.761719 4.511719 65.730469 4.828125 65.730469 C 5.144531 65.730469 5.457031 65.761719 5.769531 65.824219 C 6.082031 65.886719 6.382812 65.976562 6.675781 66.101562 C 6.96875 66.222656 7.246094 66.371094 7.511719 66.546875 C 7.773438 66.722656 8.019531 66.921875 8.242188 67.148438 C 8.464844 67.371094 8.667969 67.613281 8.84375 67.878906 C 9.019531 68.140625 9.167969 68.421875 9.289062 68.714844 C 9.410156 69.007812 9.5 69.308594 9.5625 69.621094 C 9.625 69.929688 9.65625 70.246094 9.65625 70.5625 L 9.65625 88.503906 C 9.65625 88.953125 9.699219 89.398438 9.789062 89.839844 C 9.875 90.277344 10.007812 90.707031 10.179688 91.121094 C 10.351562 91.535156 10.5625 91.929688 10.8125 92.300781 C 11.058594 92.675781 11.34375 93.019531 11.660156 93.339844 C 11.980469 93.65625 12.324219 93.9375 12.695312 94.1875 C 13.070312 94.4375 13.464844 94.648438 13.878906 94.820312 C 14.292969 94.992188 14.71875 95.121094 15.160156 95.210938 C 15.601562 95.296875 16.046875 95.34375 16.496094 95.34375 L 95.507812 95.34375 C 95.957031 95.34375 96.402344 95.296875 96.839844 95.210938 C 97.28125 95.121094 97.710938 94.992188 98.125 94.820312 C 98.539062 94.648438 98.933594 94.4375 99.304688 94.1875 C 99.679688 93.9375 100.023438 93.65625 100.339844 93.339844 C 100.660156 93.019531 100.941406 92.675781 101.191406 92.300781 C 101.441406 91.929688 101.652344 91.535156 101.824219 91.121094 C 101.996094 90.707031 102.125 90.277344 102.214844 89.839844 C 102.300781 89.398438 102.347656 88.953125 102.347656 88.503906 L 102.347656 70.5625 C 102.347656 70.246094 102.378906 69.929688 102.441406 69.621094 C 102.5 69.308594 102.59375 69.007812 102.714844 68.714844 C 102.835938 68.421875 102.984375 68.144531 103.160156 67.878906 C 103.335938 67.617188 103.535156 67.371094 103.761719 67.148438 C 103.984375 66.921875 104.230469 66.722656 104.492188 66.546875 C 104.757812 66.371094 105.035156 66.222656 105.328125 66.101562 C 105.621094 65.980469 105.921875 65.886719 106.234375 65.828125 C 106.542969 65.765625 106.859375 65.734375 107.175781 65.734375 C 107.492188 65.734375 107.804688 65.765625 108.117188 65.828125 C 108.425781 65.886719 108.730469 65.980469 109.023438 66.101562 C 109.316406 66.222656 109.59375 66.371094 109.855469 66.546875 C 110.121094 66.722656 110.363281 66.921875 110.589844 67.148438 C 110.8125 67.371094 111.011719 67.617188 111.1875 67.878906 C 111.363281 68.144531 111.511719 68.421875 111.632812 68.714844 C 111.757812 69.007812 111.847656 69.308594 111.910156 69.621094 C 111.972656 69.929688 112.003906 70.246094 112.003906 70.5625 Z M 40.457031 36.199219 L 49.644531 27.011719 C 49.785156 26.875 49.949219 26.785156 50.140625 26.75 C 50.332031 26.710938 50.519531 26.726562 50.699219 26.804688 C 50.878906 26.878906 51.023438 26.996094 51.132812 27.160156 C 51.238281 27.320312 51.292969 27.5 51.292969 27.695312 L 51.292969 73.152344 C 51.292969 73.46875 51.324219 73.78125 51.386719 74.09375 C 51.449219 74.402344 51.539062 74.707031 51.660156 75 C 51.78125 75.292969 51.929688 75.570312 52.109375 75.832031 C 52.285156 76.097656 52.484375 76.339844 52.707031 76.5625 C 52.933594 76.789062 53.175781 76.988281 53.441406 77.164062 C 53.703125 77.339844 53.980469 77.488281 54.273438 77.609375 C 54.566406 77.730469 54.867188 77.824219 55.179688 77.886719 C 55.492188 77.949219 55.804688 77.976562 56.121094 77.976562 C 56.4375 77.976562 56.753906 77.949219 57.0625 77.886719 C 57.375 77.824219 57.675781 77.730469 57.96875 77.609375 C 58.261719 77.488281 58.539062 77.339844 58.804688 77.164062 C 59.066406 76.988281 59.3125 76.789062 59.535156 76.5625 C 59.757812 76.339844 59.960938 76.097656 60.136719 75.832031 C 60.3125 75.570312 60.460938 75.292969 60.582031 75 C 60.703125 74.707031 60.792969 74.402344 60.855469 74.09375 C 60.917969 73.78125 60.949219 73.46875 60.949219 73.152344 L 60.949219 27.9375 C 60.949219 27.742188 61.003906 27.5625 61.113281 27.398438 C 61.21875 27.238281 61.363281 27.117188 61.546875 27.042969 C 61.726562 26.972656 61.910156 26.953125 62.101562 26.992188 C 62.292969 27.03125 62.460938 27.117188 62.597656 27.253906 L 71.542969 36.199219 C 71.773438 36.417969 72.019531 36.613281 72.28125 36.78125 C 72.546875 36.953125 72.824219 37.097656 73.117188 37.214844 C 73.410156 37.332031 73.710938 37.417969 74.019531 37.480469 C 74.332031 37.539062 74.640625 37.570312 74.957031 37.570312 C 75.273438 37.570312 75.585938 37.539062 75.894531 37.480469 C 76.203125 37.417969 76.503906 37.332031 76.796875 37.214844 C 77.089844 37.097656 77.367188 36.953125 77.632812 36.78125 C 77.898438 36.613281 78.144531 36.417969 78.371094 36.199219 C 78.59375 35.976562 78.792969 35.730469 78.96875 35.46875 C 79.144531 35.203125 79.292969 34.925781 79.414062 34.632812 C 79.535156 34.339844 79.628906 34.039062 79.6875 33.726562 C 79.75 33.417969 79.78125 33.105469 79.78125 32.785156 C 79.78125 32.46875 79.75 32.15625 79.6875 31.84375 C 79.628906 31.535156 79.535156 31.234375 79.414062 30.941406 C 79.292969 30.648438 79.144531 30.367188 78.96875 30.105469 C 78.792969 29.84375 78.59375 29.597656 78.371094 29.375 L 56 7.003906 L 33.632812 29.375 C 33.40625 29.597656 33.207031 29.84375 33.03125 30.105469 C 32.855469 30.367188 32.707031 30.648438 32.585938 30.941406 C 32.464844 31.234375 32.375 31.535156 32.3125 31.84375 C 32.25 32.15625 32.222656 32.46875 32.222656 32.785156 C 32.222656 33.105469 32.25 33.417969 32.3125 33.726562 C 32.375 34.039062 32.464844 34.339844 32.585938 34.632812 C 32.707031 34.925781 32.855469 35.203125 33.03125 35.46875 C 33.207031 35.730469 33.40625 35.976562 33.632812 36.199219 C 33.859375 36.417969 34.105469 36.613281 34.371094 36.78125 C 34.636719 36.953125 34.914062 37.097656 35.207031 37.214844 C 35.5 37.332031 35.800781 37.417969 36.109375 37.480469 C 36.417969 37.539062 36.730469 37.570312 37.042969 37.570312 C 37.359375 37.570312 37.671875 37.539062 37.980469 37.480469 C 38.289062 37.417969 38.589844 37.332031 38.882812 37.214844 C 39.175781 37.097656 39.453125 36.953125 39.71875 36.78125 C 39.984375 36.613281 40.230469 36.417969 40.457031 36.199219 Z M 40.457031 36.199219 " fill-opacity="1" fill-rule="nonzero"/></g><g fill="#5d5d5d" fill-opacity="1"><g transform="translate(54.302513, 50.648533)"><g><path d="M 1.015625 0.015625 C 0.898438 0.046875 0.789062 0.0546875 0.6875 0.046875 C 0.414062 0.046875 0.285156 -0.101562 0.296875 -0.40625 L 0.328125 -1.71875 L 0.109375 -1.734375 L 0.125 -1.984375 L 0.359375 -1.96875 L 0.46875 -2.40625 L 0.6875 -2.40625 L 0.671875 -1.96875 L 1.046875 -1.953125 L 1.03125 -1.703125 L 0.65625 -1.71875 L 0.625 -0.46875 C 0.625 -0.375 0.632812 -0.304688 0.65625 -0.265625 C 0.6875 -0.234375 0.742188 -0.210938 0.828125 -0.203125 C 0.867188 -0.203125 0.929688 -0.210938 1.015625 -0.234375 Z M 1.015625 0.015625 "/></g></g></g></svg>