<svg xmlns="http://www.w3.org/2000/svg" xmlns:xlink="http://www.w3.org/1999/xlink" width="500" zoomAndPan="magnify" viewBox="0 0 375 374.999991" height="500" preserveAspectRatio="xMidYMid meet" version="1.0"><defs><g/><clipPath id="83b54ac42c"><path d="M 15.113281 0 L 360.113281 0 L 360.113281 375 L 15.113281 375 Z M 15.113281 0 " clip-rule="nonzero"/></clipPath></defs><g clip-path="url(#83b54ac42c)"><path fill="#000000" d="M 360.097656 341.136719 L 360.097656 337.347656 C 360.097656 314.089844 355.535156 291.515625 346.535156 270.25 C 337.847656 249.726562 325.414062 231.292969 309.578125 215.472656 C 293.746094 199.648438 275.304688 187.226562 254.761719 178.542969 C 253.410156 177.972656 252.050781 177.421875 250.683594 176.882812 C 253.269531 174.769531 255.757812 172.523438 258.144531 170.140625 C 267.296875 160.996094 274.484375 150.339844 279.507812 138.46875 C 284.714844 126.167969 287.355469 113.113281 287.355469 99.667969 C 287.355469 86.21875 284.714844 73.164062 279.507812 60.863281 C 274.484375 48.996094 267.296875 38.335938 258.144531 29.191406 C 248.988281 20.042969 238.324219 12.859375 226.445312 7.839844 C 214.136719 2.636719 201.074219 0 187.621094 0 C 174.164062 0 161.101562 2.636719 148.792969 7.839844 C 136.914062 12.859375 126.25 20.042969 117.097656 29.191406 C 107.941406 38.335938 100.753906 48.996094 95.730469 60.863281 C 90.523438 73.164062 87.882812 86.21875 87.882812 99.667969 C 87.882812 113.113281 90.523438 126.167969 95.730469 138.46875 C 100.753906 150.339844 107.945312 160.996094 117.097656 170.140625 C 119.480469 172.523438 121.96875 174.769531 124.554688 176.882812 C 123.1875 177.421875 121.824219 177.972656 120.476562 178.542969 C 99.933594 187.226562 81.492188 199.648438 65.660156 215.472656 C 49.824219 231.292969 37.390625 249.726562 28.703125 270.25 C 19.703125 291.515625 15.140625 314.089844 15.140625 337.347656 L 15.140625 341.136719 C 15.140625 358.828125 28.730469 373.40625 46.023438 375.003906 L 331.5625 374.703125 L 331.664062 374.691406 C 334.636719 374.386719 337.515625 373.503906 340.148438 372.097656 C 351.90625 366.734375 360.097656 354.875 360.097656 341.136719 Z M 114.109375 130.699219 C 109.949219 120.871094 107.839844 110.429688 107.839844 99.667969 C 107.839844 88.902344 109.949219 78.464844 114.109375 68.632812 C 118.128906 59.140625 123.878906 50.613281 131.207031 43.292969 C 138.535156 35.972656 147.066406 30.222656 156.566406 26.207031 C 166.402344 22.050781 176.847656 19.941406 187.621094 19.941406 C 198.390625 19.941406 208.835938 22.050781 218.671875 26.207031 C 228.171875 30.222656 236.703125 35.972656 244.03125 43.292969 C 251.359375 50.613281 257.109375 59.140625 261.128906 68.632812 C 265.289062 78.464844 267.398438 88.902344 267.398438 99.667969 C 267.398438 110.429688 265.289062 120.871094 261.128906 130.699219 C 257.109375 140.191406 251.359375 148.71875 244.03125 156.039062 C 236.703125 163.359375 228.171875 169.109375 218.671875 173.125 C 208.835938 177.28125 198.390625 179.390625 187.621094 179.390625 C 176.847656 179.390625 166.402344 177.28125 156.566406 173.125 C 147.066406 169.109375 138.535156 163.359375 131.207031 156.039062 C 123.878906 148.71875 118.128906 140.191406 114.109375 130.699219 Z M 340.140625 341.136719 C 340.140625 348.894531 333.824219 355.207031 326.058594 355.207031 L 49.175781 355.207031 C 41.414062 355.207031 35.097656 348.894531 35.097656 341.136719 L 35.097656 337.347656 C 35.097656 316.773438 39.128906 296.8125 47.085938 278.019531 C 54.765625 259.871094 65.761719 243.570312 79.769531 229.574219 C 93.777344 215.574219 110.085938 204.585938 128.25 196.910156 C 132.253906 195.21875 136.367188 193.683594 140.476562 192.347656 C 141.90625 191.878906 143.367188 191.429688 144.808594 191.007812 C 145.347656 190.851562 145.859375 190.652344 146.347656 190.417969 C 147.15625 190.785156 147.96875 191.144531 148.789062 191.492188 C 161.097656 196.695312 174.164062 199.332031 187.617188 199.332031 C 201.074219 199.332031 214.136719 196.695312 226.445312 191.492188 C 227.265625 191.144531 228.082031 190.785156 228.890625 190.417969 C 229.378906 190.652344 229.890625 190.851562 230.429688 191.007812 C 236.015625 192.640625 241.585938 194.625 246.988281 196.910156 C 265.152344 204.585938 281.460938 215.574219 295.46875 229.574219 C 309.472656 243.570312 320.472656 259.871094 328.152344 278.019531 C 336.105469 296.8125 340.140625 316.773438 340.140625 337.347656 Z M 340.140625 341.136719 " fill-opacity="1" fill-rule="nonzero"/></g><g fill="#000000" fill-opacity="1"><g transform="translate(160.263056, 191.511262)"><g><path d="M 4.5 -7.765625 C 3.332031 -7.765625 2.75 -6.644531 2.75 -4.40625 L 2.75 -3.515625 C 2.75 -2.453125 2.898438 -1.617188 3.203125 -1.015625 C 3.515625 -0.410156 3.972656 -0.109375 4.578125 -0.109375 C 5.398438 -0.109375 6.15625 -0.910156 6.84375 -2.515625 L 7.046875 -2.515625 L 6.96875 -0.015625 L 6.84375 -0.015625 C 6.800781 -0.0976562 6.757812 -0.15625 6.71875 -0.1875 C 6.675781 -0.21875 6.617188 -0.234375 6.546875 -0.234375 C 6.484375 -0.234375 6.210938 -0.175781 5.734375 -0.0625 C 5.265625 0.0507812 4.785156 0.109375 4.296875 0.109375 C 3.078125 0.109375 2.128906 -0.21875 1.453125 -0.875 C 0.785156 -1.53125 0.453125 -2.519531 0.453125 -3.84375 C 0.453125 -5.164062 0.800781 -6.1875 1.5 -6.90625 C 2.207031 -7.625 3.15625 -7.984375 4.34375 -7.984375 C 4.789062 -7.984375 5.234375 -7.925781 5.671875 -7.8125 C 6.117188 -7.695312 6.378906 -7.640625 6.453125 -7.640625 C 6.523438 -7.640625 6.578125 -7.65625 6.609375 -7.6875 C 6.648438 -7.71875 6.691406 -7.773438 6.734375 -7.859375 L 6.859375 -7.859375 L 6.953125 -5.421875 L 6.75 -5.421875 C 6.414062 -6.179688 6.066406 -6.757812 5.703125 -7.15625 C 5.347656 -7.5625 4.945312 -7.765625 4.5 -7.765625 Z M 4.5 -7.765625 "/></g></g></g><g fill="#000000" fill-opacity="1"><g transform="translate(168.012841, 191.511262)"><g><path d="M 2.8125 -2.640625 L 3.140625 -2.640625 L 3.140625 -3.5 C 3.140625 -4.21875 3.097656 -4.695312 3.015625 -4.9375 C 2.941406 -5.175781 2.789062 -5.296875 2.5625 -5.296875 C 2.425781 -5.296875 2.300781 -5.257812 2.1875 -5.1875 C 2.082031 -5.125 2.03125 -5.03125 2.03125 -4.90625 C 2.03125 -4.78125 2.050781 -4.65625 2.09375 -4.53125 L 2.375 -4.53125 C 2.4375 -4.375 2.46875 -4.179688 2.46875 -3.953125 C 2.46875 -3.734375 2.375 -3.539062 2.1875 -3.375 C 2 -3.21875 1.765625 -3.140625 1.484375 -3.140625 C 0.835938 -3.140625 0.515625 -3.453125 0.515625 -4.078125 C 0.515625 -4.992188 1.296875 -5.453125 2.859375 -5.453125 C 3.753906 -5.453125 4.367188 -5.300781 4.703125 -5 C 5.046875 -4.695312 5.21875 -4.144531 5.21875 -3.34375 L 5.21875 -1.0625 C 5.21875 -0.664062 5.328125 -0.46875 5.546875 -0.46875 C 5.804688 -0.46875 5.957031 -0.851562 6 -1.625 L 6.171875 -1.625 C 6.140625 -0.957031 6.015625 -0.5 5.796875 -0.25 C 5.578125 -0.0078125 5.222656 0.109375 4.734375 0.109375 C 3.828125 0.109375 3.304688 -0.164062 3.171875 -0.71875 C 3.078125 -0.4375 2.929688 -0.226562 2.734375 -0.09375 C 2.546875 0.0390625 2.265625 0.109375 1.890625 0.109375 C 0.773438 0.109375 0.21875 -0.34375 0.21875 -1.25 C 0.21875 -1.78125 0.429688 -2.144531 0.859375 -2.34375 C 1.285156 -2.539062 1.9375 -2.640625 2.8125 -2.640625 Z M 2.359375 -1.265625 C 2.359375 -0.867188 2.378906 -0.613281 2.421875 -0.5 C 2.460938 -0.394531 2.539062 -0.34375 2.65625 -0.34375 C 2.769531 -0.34375 2.878906 -0.4375 2.984375 -0.625 C 3.085938 -0.8125 3.140625 -1.078125 3.140625 -1.421875 L 3.140625 -2.453125 L 3.0625 -2.453125 C 2.59375 -2.453125 2.359375 -2.113281 2.359375 -1.4375 Z M 2.359375 -1.265625 "/></g></g></g><g fill="#000000" fill-opacity="1"><g transform="translate(174.178973, 191.511262)"><g><path d="M 4.21875 -3.015625 C 4.21875 -3.785156 4.175781 -4.304688 4.09375 -4.578125 C 4.019531 -4.847656 3.875 -4.984375 3.65625 -4.984375 C 3.445312 -4.984375 3.253906 -4.847656 3.078125 -4.578125 C 2.898438 -4.304688 2.8125 -3.929688 2.8125 -3.453125 L 2.8125 -1.375 C 2.8125 -1.050781 2.878906 -0.773438 3.015625 -0.546875 C 3.148438 -0.328125 3.335938 -0.21875 3.578125 -0.21875 C 3.816406 -0.21875 3.984375 -0.378906 4.078125 -0.703125 C 4.171875 -1.035156 4.21875 -1.613281 4.21875 -2.4375 Z M 2.8125 -8.421875 L 2.8125 -4.5 C 3.101562 -5.132812 3.59375 -5.453125 4.28125 -5.453125 C 5.675781 -5.453125 6.375 -4.519531 6.375 -2.65625 C 6.375 -1.707031 6.179688 -1.007812 5.796875 -0.5625 C 5.410156 -0.113281 4.832031 0.109375 4.0625 0.109375 C 3.675781 0.109375 3.378906 0.0507812 3.171875 -0.0625 C 2.960938 -0.1875 2.820312 -0.382812 2.75 -0.65625 L 2.671875 0 L 0.109375 0 L 0.109375 -0.203125 L 0.734375 -0.203125 L 0.734375 -8.21875 L 0.109375 -8.21875 L 0.109375 -8.421875 Z M 2.8125 -8.421875 "/></g></g></g><g fill="#000000" fill-opacity="1"><g transform="translate(180.783136, 191.511262)"><g><path d="M 3.0625 0.109375 C 2.101562 0.109375 1.378906 -0.132812 0.890625 -0.625 C 0.410156 -1.125 0.171875 -1.816406 0.171875 -2.703125 C 0.171875 -3.597656 0.441406 -4.28125 0.984375 -4.75 C 1.523438 -5.21875 2.21875 -5.453125 3.0625 -5.453125 C 4.757812 -5.453125 5.570312 -4.601562 5.5 -2.90625 L 2.34375 -2.90625 L 2.34375 -2.453125 C 2.34375 -1.722656 2.4375 -1.171875 2.625 -0.796875 C 2.8125 -0.421875 3.132812 -0.234375 3.59375 -0.234375 C 4.457031 -0.234375 5.023438 -0.695312 5.296875 -1.625 L 5.5 -1.59375 C 5.363281 -1.050781 5.109375 -0.628906 4.734375 -0.328125 C 4.359375 -0.0351562 3.800781 0.109375 3.0625 0.109375 Z M 2.34375 -3.125 L 3.5 -3.125 L 3.5 -3.671875 C 3.5 -4.273438 3.460938 -4.6875 3.390625 -4.90625 C 3.328125 -5.132812 3.1875 -5.25 2.96875 -5.25 C 2.757812 -5.25 2.601562 -5.128906 2.5 -4.890625 C 2.394531 -4.648438 2.34375 -4.242188 2.34375 -3.671875 Z M 2.34375 -3.125 "/></g></g></g><g fill="#000000" fill-opacity="1"><g transform="translate(186.578626, 191.511262)"><g><path d="M 3.265625 -5.25 C 2.929688 -5.25 2.691406 -5.066406 2.546875 -4.703125 C 2.410156 -4.347656 2.34375 -3.757812 2.34375 -2.9375 L 2.34375 -2.34375 C 2.34375 -1.601562 2.421875 -1.070312 2.578125 -0.75 C 2.742188 -0.425781 3.046875 -0.265625 3.484375 -0.265625 C 3.929688 -0.265625 4.285156 -0.414062 4.546875 -0.71875 C 4.804688 -1.019531 4.976562 -1.359375 5.0625 -1.734375 L 5.25 -1.71875 C 5.113281 -1.101562 4.882812 -0.65625 4.5625 -0.375 C 4.226562 -0.101562 3.757812 0.0507812 3.15625 0.09375 L 2.859375 0.625 C 3.015625 0.59375 3.132812 0.578125 3.21875 0.578125 C 4.007812 0.578125 4.40625 0.910156 4.40625 1.578125 C 4.40625 1.890625 4.28125 2.160156 4.03125 2.390625 C 3.78125 2.628906 3.394531 2.75 2.875 2.75 C 2.53125 2.75 2.25 2.679688 2.03125 2.546875 C 1.820312 2.410156 1.71875 2.25 1.71875 2.0625 C 1.71875 1.875 1.757812 1.734375 1.84375 1.640625 C 1.9375 1.546875 2.054688 1.5 2.203125 1.5 C 2.453125 1.5 2.625 1.644531 2.71875 1.9375 L 2.421875 2.15625 C 2.421875 2.257812 2.453125 2.351562 2.515625 2.4375 C 2.578125 2.53125 2.675781 2.578125 2.8125 2.578125 C 2.945312 2.578125 3.046875 2.507812 3.109375 2.375 C 3.179688 2.238281 3.21875 2.035156 3.21875 1.765625 C 3.21875 1.492188 3.207031 1.300781 3.1875 1.1875 C 3.164062 0.914062 3.054688 0.78125 2.859375 0.78125 C 2.753906 0.78125 2.640625 0.796875 2.515625 0.828125 L 2.484375 0.734375 L 2.859375 0.109375 C 1.984375 0.0976562 1.316406 -0.132812 0.859375 -0.59375 C 0.398438 -1.0625 0.171875 -1.742188 0.171875 -2.640625 C 0.171875 -3.546875 0.429688 -4.238281 0.953125 -4.71875 C 1.484375 -5.207031 2.222656 -5.453125 3.171875 -5.453125 C 3.835938 -5.453125 4.34375 -5.320312 4.6875 -5.0625 C 5.039062 -4.8125 5.21875 -4.488281 5.21875 -4.09375 C 5.21875 -3.707031 5.132812 -3.425781 4.96875 -3.25 C 4.800781 -3.070312 4.566406 -2.984375 4.265625 -2.984375 C 3.972656 -2.984375 3.738281 -3.0625 3.5625 -3.21875 C 3.382812 -3.375 3.296875 -3.601562 3.296875 -3.90625 C 3.296875 -4.039062 3.3125 -4.175781 3.34375 -4.3125 L 3.71875 -4.3125 C 3.769531 -4.457031 3.796875 -4.59375 3.796875 -4.71875 C 3.796875 -5.070312 3.617188 -5.25 3.265625 -5.25 Z M 3.265625 -5.25 "/></g></g></g><g fill="#000000" fill-opacity="1"><g transform="translate(192.003475, 191.511262)"><g><path d="M 2.8125 -2.640625 L 3.140625 -2.640625 L 3.140625 -3.5 C 3.140625 -4.21875 3.097656 -4.695312 3.015625 -4.9375 C 2.941406 -5.175781 2.789062 -5.296875 2.5625 -5.296875 C 2.425781 -5.296875 2.300781 -5.257812 2.1875 -5.1875 C 2.082031 -5.125 2.03125 -5.03125 2.03125 -4.90625 C 2.03125 -4.78125 2.050781 -4.65625 2.09375 -4.53125 L 2.375 -4.53125 C 2.4375 -4.375 2.46875 -4.179688 2.46875 -3.953125 C 2.46875 -3.734375 2.375 -3.539062 2.1875 -3.375 C 2 -3.21875 1.765625 -3.140625 1.484375 -3.140625 C 0.835938 -3.140625 0.515625 -3.453125 0.515625 -4.078125 C 0.515625 -4.992188 1.296875 -5.453125 2.859375 -5.453125 C 3.753906 -5.453125 4.367188 -5.300781 4.703125 -5 C 5.046875 -4.695312 5.21875 -4.144531 5.21875 -3.34375 L 5.21875 -1.0625 C 5.21875 -0.664062 5.328125 -0.46875 5.546875 -0.46875 C 5.804688 -0.46875 5.957031 -0.851562 6 -1.625 L 6.171875 -1.625 C 6.140625 -0.957031 6.015625 -0.5 5.796875 -0.25 C 5.578125 -0.0078125 5.222656 0.109375 4.734375 0.109375 C 3.828125 0.109375 3.304688 -0.164062 3.171875 -0.71875 C 3.078125 -0.4375 2.929688 -0.226562 2.734375 -0.09375 C 2.546875 0.0390625 2.265625 0.109375 1.890625 0.109375 C 0.773438 0.109375 0.21875 -0.34375 0.21875 -1.25 C 0.21875 -1.78125 0.429688 -2.144531 0.859375 -2.34375 C 1.285156 -2.539062 1.9375 -2.640625 2.8125 -2.640625 Z M 2.359375 -1.265625 C 2.359375 -0.867188 2.378906 -0.613281 2.421875 -0.5 C 2.460938 -0.394531 2.539062 -0.34375 2.65625 -0.34375 C 2.769531 -0.34375 2.878906 -0.4375 2.984375 -0.625 C 3.085938 -0.8125 3.140625 -1.078125 3.140625 -1.421875 L 3.140625 -2.453125 L 3.0625 -2.453125 C 2.59375 -2.453125 2.359375 -2.113281 2.359375 -1.4375 Z M 2.359375 -1.265625 "/></g></g></g><g fill="#000000" fill-opacity="1"><g transform="translate(198.169606, 191.511262)"><g><path d="M 0.0625 -8.421875 L 2.8125 -8.421875 L 2.8125 -0.203125 L 3.453125 -0.203125 L 3.453125 0 L 0.109375 0 L 0.109375 -0.203125 L 0.734375 -0.203125 L 0.734375 -8.21875 L 0.0625 -8.21875 Z M 0.0625 -8.421875 "/></g></g></g><g fill="#000000" fill-opacity="1"><g transform="translate(201.718783, 191.511262)"><g><path d="M 0.109375 -8.421875 L 2.8125 -8.421875 L 2.8125 -4.3125 C 2.9375 -4.65625 3.117188 -4.929688 3.359375 -5.140625 C 3.609375 -5.347656 3.988281 -5.453125 4.5 -5.453125 C 5.65625 -5.453125 6.234375 -4.828125 6.234375 -3.578125 L 6.234375 -0.203125 L 6.859375 -0.203125 L 6.859375 0 L 3.6875 0 L 3.6875 -0.203125 L 4.140625 -0.203125 L 4.140625 -3.859375 C 4.140625 -4.304688 4.109375 -4.59375 4.046875 -4.71875 C 3.992188 -4.851562 3.890625 -4.921875 3.734375 -4.921875 C 3.492188 -4.921875 3.28125 -4.765625 3.09375 -4.453125 C 2.90625 -4.140625 2.8125 -3.753906 2.8125 -3.296875 L 2.8125 -0.203125 L 3.296875 -0.203125 L 3.296875 0 L 0.109375 0 L 0.109375 -0.203125 L 0.734375 -0.203125 L 0.734375 -8.21875 L 0.109375 -8.21875 Z M 0.109375 -8.421875 "/></g></g></g><g fill="#000000" fill-opacity="1"><g transform="translate(208.637432, 191.511262)"><g><path d="M 3.734375 -2.21875 L 3.734375 -3.171875 C 3.734375 -3.890625 3.691406 -4.414062 3.609375 -4.75 C 3.535156 -5.082031 3.359375 -5.25 3.078125 -5.25 C 2.910156 -5.25 2.773438 -5.203125 2.671875 -5.109375 C 2.578125 -5.023438 2.503906 -4.875 2.453125 -4.65625 C 2.390625 -4.3125 2.359375 -3.796875 2.359375 -3.109375 L 2.359375 -2.234375 C 2.359375 -1.421875 2.378906 -0.929688 2.421875 -0.765625 C 2.472656 -0.597656 2.523438 -0.460938 2.578125 -0.359375 C 2.660156 -0.179688 2.820312 -0.09375 3.0625 -0.09375 C 3.351562 -0.09375 3.546875 -0.257812 3.640625 -0.59375 C 3.703125 -0.832031 3.734375 -1.375 3.734375 -2.21875 Z M 3.046875 0.109375 C 2.109375 0.109375 1.398438 -0.128906 0.921875 -0.609375 C 0.441406 -1.085938 0.203125 -1.773438 0.203125 -2.671875 C 0.203125 -3.566406 0.457031 -4.253906 0.96875 -4.734375 C 1.476562 -5.210938 2.195312 -5.453125 3.125 -5.453125 C 4.0625 -5.453125 4.753906 -5.226562 5.203125 -4.78125 C 5.660156 -4.34375 5.890625 -3.664062 5.890625 -2.75 C 5.890625 -0.84375 4.941406 0.109375 3.046875 0.109375 Z M 3.046875 0.109375 "/></g></g></g></svg>